<?xml version="1.0" encoding="UTF-8" standalone="no"?>
<svg width="28px" height="15px" viewBox="0 0 28 15" version="1.1" xmlns="http://www.w3.org/2000/svg" xmlns:xlink="http://www.w3.org/1999/xlink" xmlns:sketch="http://www.bohemiancoding.com/sketch/ns">
    <!-- Generator: Sketch 3.2.2 (9983) - http://www.bohemiancoding.com/sketch -->
    <title>down 2</title>
    <desc>Created with Sketch.</desc>
    <defs></defs>
    <g id="Web" stroke="none" stroke-width="1" fill="none" fill-rule="evenodd" sketch:type="MSPage">
        <g id="Home" sketch:type="MSArtboardGroup" transform="translate(-663.000000, -607.000000)" fill-opacity="0.5" fill="#FFFFFF">
            <g id="Header" sketch:type="MSLayerGroup">
                <g id="Btn:-Slide-down" transform="translate(635.000000, 607.000000)" sketch:type="MSShapeGroup">
                    <path d="M42.0888164,14.8115839 C42.2203675,14.7634284 42.3438244,14.686869 42.449218,14.5814755 C42.4780018,14.5526916 42.5046781,14.5226509 42.5292493,14.4915396 L55.1730316,1.84775731 C55.5523927,1.46839627 55.5577599,0.82986412 55.1672356,0.439339828 C54.7739886,0.0460928729 54.1461413,0.0462205445 53.7588181,0.433543751 L41.737159,12.4552029 L29.7154999,0.433543751 C29.3361388,0.0541827076 28.6976067,0.0488155365 28.3070824,0.439339828 C27.9138354,0.832586784 27.9139631,1.46043411 28.3012863,1.84775731 L40.9465698,14.4930409 C40.9706812,14.5236885 40.9968551,14.5532306 41.0250999,14.5814755 C41.315513,14.8718885 41.7338731,14.9477618 42.0888164,14.8115839 Z" id="down-2"></path>
                </g>
            </g>
        </g>
    </g>
</svg>