<?xml version="1.0" encoding="UTF-8" standalone="no"?>
<svg width="151px" height="19px" viewBox="0 0 151 19" version="1.1" xmlns="http://www.w3.org/2000/svg" xmlns:xlink="http://www.w3.org/1999/xlink" xmlns:sketch="http://www.bohemiancoding.com/sketch/ns">
    <!-- Generator: Sketch 3.2.2 (9983) - http://www.bohemiancoding.com/sketch -->
    <title>logo</title>
    <desc>Created with Sketch.</desc>
    <defs></defs>
    <g id="Web" stroke="none" stroke-width="1" fill="none" fill-rule="evenodd" sketch:type="MSPage">
        <g id="Home" sketch:type="MSArtboardGroup" transform="translate(-575.000000, -53.000000)" fill="#FFFFFF">
            <g id="Header" sketch:type="MSLayerGroup">
                <g id="Logo" transform="translate(550.000000, 45.000000)" sketch:type="MSShapeGroup">
                    <path d="M25.8875,8.5 L25.8875,26 L27.9875,26 L27.9875,18.85 L29.6125,18.85 L34.3375,26 L36.8625,26 L32.0125,18.675 C32.1291664,18.6583336 32.4166664,18.5833336 32.875,18.45 C33.3333328,18.3166672 33.8166664,18.0708336 34.325,17.7125 C34.8333336,17.3541664 35.2875,16.8541664 35.6875,16.2125 C36.0875,15.5708328 36.2875,14.7416664 36.2875,13.725 C36.2875,12.925 36.1458336,12.2041672 35.8625,11.5625 C35.5791664,10.9208328 35.1791664,10.3708328 34.6625,9.9125 C34.1458328,9.45416718 33.5291664,9.10416718 32.8125,8.8625 C32.0958328,8.62083282 31.3041664,8.5 30.4375,8.5 L25.8875,8.5 Z M30.5625,16.85 L27.9875,16.85 L27.9875,10.5 L30.5625,10.5 C31.7458336,10.5 32.6458336,10.7875 33.2625,11.3625 C33.8791664,11.9375 34.1875,12.7083328 34.1875,13.675 C34.1875,14.6416664 33.8791664,15.4125 33.2625,15.9875 C32.6458336,16.5625 31.7458336,16.85 30.5625,16.85 L30.5625,16.85 Z M53.8125,16.025 L53.8125,10.5 L61.8125,10.5 L61.8125,8.5 L51.7125,8.5 L51.7125,26 L61.9625,26 L61.9625,24 L53.8125,24 L53.8125,18.025 L61.2125,18.025 L61.2125,16.025 L53.8125,16.025 Z M79.4125,8.5 L77.3125,8.5 L77.3125,26 L79.4125,26 L79.4125,12.325 L85.3875,22.025 L91.3625,12.3 L91.3625,26 L93.4625,26 L93.4625,8.5 L91.4375,8.5 L85.4375,18.275 L79.4125,8.5 Z M117.1125,24.3 C116.1625,24.3 115.291666,24.1083336 114.5,23.725 C113.708333,23.3416664 113.033333,22.825 112.475,22.175 C111.916666,21.525 111.483333,20.775 111.175,19.925 C110.866667,19.075 110.7125,18.1833336 110.7125,17.25 C110.7125,16.3166664 110.866667,15.425 111.175,14.575 C111.483334,13.725 111.916667,12.975 112.475,12.325 C113.033333,11.675 113.708333,11.1583328 114.5,10.775 C115.291666,10.3916672 116.1625,10.2 117.1125,10.2 C118.0625,10.2 118.933334,10.3916672 119.725,10.775 C120.516667,11.1583328 121.191667,11.675 121.75,12.325 C122.308334,12.975 122.741667,13.725 123.05,14.575 C123.358333,15.425 123.5125,16.3166664 123.5125,17.25 C123.5125,18.1833336 123.358333,19.075 123.05,19.925 C122.741666,20.775 122.308333,21.525 121.75,22.175 C121.191667,22.825 120.516667,23.3416664 119.725,23.725 C118.933334,24.1083336 118.0625,24.3 117.1125,24.3 L117.1125,24.3 Z M117.1125,8.2 C115.845834,8.2 114.683334,8.43333282 113.625,8.9 C112.566667,9.36666565 111.654167,10.0083328 110.8875,10.825 C110.120834,11.6416672 109.525,12.6 109.1,13.7 C108.675,14.8 108.4625,15.9833336 108.4625,17.25 C108.4625,18.5166664 108.675,19.7 109.1,20.8 C109.525,21.9 110.120834,22.8583336 110.8875,23.675 C111.654167,24.4916664 112.566667,25.1333332 113.625,25.6 C114.683334,26.0666668 115.845834,26.3 117.1125,26.3 C118.379166,26.3 119.541666,26.0666668 120.6,25.6 C121.658333,25.1333336 122.570833,24.4916668 123.3375,23.675 C124.104167,22.8583336 124.7,21.9 125.125,20.8 C125.55,19.6999996 125.7625,18.5166664 125.7625,17.25 C125.7625,15.9833336 125.55,14.8 125.125,13.7 C124.7,12.6 124.104167,11.6416672 123.3375,10.825 C122.570833,10.0083344 121.658333,9.36666718 120.6,8.9 C119.541666,8.43333282 118.379166,8.2 117.1125,8.2 L117.1125,8.2 Z M144.0875,10.5 L144.0875,26 L146.1875,26 L146.1875,10.5 L151.2125,10.5 L151.2125,8.5 L139.0625,8.5 L139.0625,10.5 L144.0875,10.5 Z M167.7125,16.025 L167.7125,10.5 L175.7125,10.5 L175.7125,8.5 L165.6125,8.5 L165.6125,26 L175.8625,26 L175.8625,24 L167.7125,24 L167.7125,18.025 L175.1125,18.025 L175.1125,16.025 L167.7125,16.025 Z" id="logo"></path>
                </g>
            </g>
        </g>
    </g>
</svg>